<?xml version="1.0" standalone="no"?>
<!DOCTYPE svg PUBLIC "-//W3C//DTD SVG 20010904//EN"
 "http://www.w3.org/TR/2001/REC-SVG-20010904/DTD/svg10.dtd">
<svg version="1.0" xmlns="http://www.w3.org/2000/svg"
 width="200.000000pt" height="110.000000pt" viewBox="0 0 200.000000 110.000000"
 preserveAspectRatio="xMidYMid meet">
<metadata>
Created by potrace 1.16, written by Peter Selinger 2001-2019
</metadata>
<g transform="translate(0.000000,110.000000) scale(0.100000,-0.100000)"
fill="#000000" stroke="none">
<path d="M186 1075 c-63 -31 -130 -97 -161 -159 -21 -42 -25 -64 -25 -136 0
-77 4 -94 30 -148 35 -69 92 -125 159 -156 36 -17 65 -21 136 -21 81 0 96 3
143 30 137 75 206 228 167 370 -27 102 -95 183 -186 225 -66 30 -197 27 -263
-5z m152 -184 c15 -47 15 -98 2 -106 -5 -3 -10 -12 -10 -18 1 -7 11 0 23 15
21 25 98 51 96 32 0 -5 -10 -29 -22 -54 -20 -40 -27 -46 -62 -50 -38 -5 -39
-6 -18 -18 12 -6 28 -10 35 -7 10 4 14 -4 14 -30 0 -41 -9 -44 -32 -10 -9 14
-20 25 -25 25 -5 0 -9 -11 -9 -25 0 -14 -4 -25 -10 -25 -5 0 -10 11 -10 25 0
16 -6 25 -15 25 -9 0 -15 -9 -15 -25 0 -18 -5 -25 -20 -25 -11 0 -20 5 -20 10
0 6 5 10 11 10 7 0 9 10 5 25 -6 22 -3 25 18 25 14 0 28 5 31 10 4 6 -8 10
-28 10 -39 0 -47 8 -71 69 l-17 43 38 -7 c23 -4 47 -17 60 -33 12 -15 22 -22
23 -15 0 6 -4 15 -10 18 -19 12 -1 145 20 145 4 0 12 -17 18 -39z"/>
<path d="M880 1055 c-150 -76 -207 -162 -198 -299 8 -124 56 -185 205 -261 72
-37 84 -40 158 -40 93 0 138 18 198 78 66 66 82 114 82 247 -1 131 -11 163
-71 230 -59 65 -118 90 -211 89 -72 0 -85 -3 -163 -44z m246 -172 c60 -102 17
-263 -70 -263 -82 0 -151 42 -187 112 -24 48 -15 88 31 135 43 43 87 63 147
63 52 0 52 -1 79 -47z"/>
<path d="M1619 1077 c-24 -13 -72 -38 -107 -56 -204 -108 -208 -373 -6 -484
23 -12 63 -35 90 -52 44 -27 57 -30 134 -30 62 0 94 5 117 18 55 29 103 78
129 128 22 44 24 60 24 179 0 119 -2 135 -25 179 -46 92 -129 140 -241 141
-55 0 -80 -5 -115 -23z m190 -176 c74 -103 30 -281 -69 -281 -84 0 -176 57
-206 128 -13 29 -12 36 6 71 20 41 67 82 110 100 14 5 51 10 82 10 51 1 59 -2
77 -28z"/>
<path d="M1004 374 c-8 -3 -10 -26 -6 -69 3 -45 1 -65 -7 -65 -6 0 -11 -9 -11
-20 0 -22 12 -25 41 -10 15 9 19 22 19 70 0 53 2 60 20 60 18 0 20 -7 20 -70
0 -63 2 -70 20 -70 17 0 20 7 21 48 1 46 1 46 9 12 9 -37 33 -60 62 -60 21 0
58 34 58 53 0 8 10 13 23 13 20 -1 22 4 25 52 3 48 1 52 -19 52 -20 0 -21 -4
-15 -47 l6 -48 -15 40 c-17 44 -39 65 -67 65 -27 0 -23 -38 5 -42 38 -5 36
-98 -2 -98 -24 0 -31 19 -31 81 0 42 -3 49 -20 49 -12 0 -20 -7 -20 -17 0 -15
-1 -15 -13 1 -12 17 -81 31 -103 20z"/>
<path d="M1317 373 c-2 -5 -5 -34 -6 -66 -1 -49 2 -61 23 -82 31 -31 56 -32
84 -2 32 34 30 100 -3 132 -23 24 -88 35 -98 18z"/>
<path d="M1435 370 c-10 -17 5 -30 35 -30 29 0 29 0 32 -67 2 -55 6 -68 21
-71 15 -3 17 5 17 67 l0 71 40 0 40 0 0 -50 0 -50 -35 0 c-28 0 -35 -4 -35
-20 0 -18 7 -20 60 -20 53 0 60 2 60 20 0 11 -3 20 -7 20 -5 0 -8 25 -8 55 0
64 -9 75 -64 82 -31 4 -42 2 -47 -10 -5 -13 -9 -13 -32 -1 -32 16 -68 18 -77
4z"/>
<path d="M1727 373 c-13 -12 -7 -33 8 -33 11 0 15 -12 15 -50 0 -47 -2 -50
-25 -50 -19 0 -25 -5 -25 -21 0 -17 5 -20 21 -16 17 4 19 3 10 -6 -6 -6 -11
-24 -11 -39 0 -25 3 -28 36 -28 31 0 35 -3 30 -20 -6 -21 -10 -37 -20 -82 -5
-23 -3 -28 13 -28 16 0 22 14 36 75 9 41 14 79 10 85 -3 5 -22 10 -41 10 -38
0 -48 24 -14 33 18 5 20 14 20 81 0 64 -3 77 -19 86 -23 12 -35 13 -44 3z"/>
<path d="M1823 373 c-22 -4 -23 -9 -23 -89 0 -77 2 -84 20 -84 18 0 20 7 20
83 1 74 2 80 15 63 10 -13 12 -23 5 -30 -5 -5 -10 -34 -10 -63 0 -40 4 -53 14
-53 11 0 16 14 18 48 l3 47 28 -47 c30 -50 65 -67 52 -25 -3 12 -6 27 -5 32
13 118 13 115 -9 115 -18 0 -21 -6 -21 -42 l-1 -43 -21 40 c-11 22 -21 41 -22
41 -6 6 -45 10 -63 7z"/>
<path d="M30 349 c0 -12 8 -23 20 -26 17 -5 20 -14 20 -64 0 -56 1 -59 25 -59
24 0 25 3 25 59 0 50 3 59 20 64 18 5 20 0 20 -59 l0 -64 49 0 c43 0 50 3 54
23 l4 22 2 -23 c1 -21 5 -23 49 -20 40 3 47 6 50 26 3 19 -1 22 -28 22 l-31 0
2 58 c3 51 1 57 -18 60 -16 2 -22 -4 -26 -27 -5 -25 -12 -31 -32 -31 -14 0
-25 4 -25 8 0 5 10 8 23 8 16 -1 23 5 25 22 3 22 2 22 -112 22 -111 0 -116 -1
-116 -21z"/>
<path d="M437 363 c-3 -4 -12 -35 -20 -68 -9 -33 -19 -68 -22 -77 -6 -15 -2
-18 20 -18 18 0 29 6 32 20 3 11 11 20 18 20 7 0 15 -9 18 -20 6 -22 57 -29
57 -7 0 9 2 9 9 -1 4 -8 19 -12 31 -10 19 2 27 14 41 63 l17 60 1 -63 c1 -63
1 -63 29 -60 27 3 27 4 26 73 l0 70 21 -70 c19 -61 24 -70 45 -70 19 0 27 9
41 50 9 28 20 65 24 83 6 29 5 32 -18 32 -26 0 -36 -15 -38 -58 -1 -23 -3 -21
-13 13 l-13 40 -73 0 -73 0 -12 -35 -12 -35 -7 38 c-6 31 -11 37 -31 37 -29 0
-30 -9 -10 -76 8 -27 14 -53 14 -59 -1 -5 -11 22 -23 60 -19 61 -26 70 -48 73
-14 2 -28 0 -31 -5z"/>
<path d="M1390 103 c0 -65 0 -66 20 -48 11 10 20 31 20 47 0 27 2 29 36 26 36
-3 37 -3 38 -51 l1 -47 -37 0 c-27 0 -38 -4 -38 -15 0 -12 16 -15 85 -15 l85
0 0 43 1 42 25 -43 c16 -26 33 -42 45 -42 23 0 25 13 4 30 -14 12 -14 15 0 30
23 25 17 104 -7 108 -15 3 -18 -4 -18 -45 l0 -48 -23 39 c-23 41 -51 65 -63
53 -4 -3 0 -17 9 -30 13 -20 13 -26 1 -42 -8 -10 -14 -29 -14 -42 0 -13 -4
-23 -10 -23 -5 0 -10 25 -10 56 0 42 -4 60 -17 70 -26 20 -80 17 -92 -3 -10
-17 -10 -17 -11 0 0 9 -7 17 -15 17 -12 0 -15 -14 -15 -67z"/>
<path d="M1848 165 c-3 -3 -3 -35 0 -70 4 -55 2 -65 -11 -65 -11 0 -14 -5 -10
-16 3 -9 15 -14 32 -12 25 3 26 6 29 66 3 54 6 62 22 62 18 0 20 -7 20 -65 0
-58 2 -65 20 -65 18 0 20 7 20 65 0 79 -19 105 -78 105 -21 0 -41 -2 -44 -5z"/>
<path d="M40 102 c0 -76 18 -102 70 -102 49 0 60 18 60 99 0 58 -1 61 -25 61
-24 0 -25 -3 -25 -60 0 -33 -4 -60 -10 -60 -6 0 -10 27 -10 60 l0 60 -30 0
c-30 0 -30 0 -30 -58z"/>
<path d="M180 80 c0 -78 1 -80 24 -80 23 0 24 3 20 37 l-5 38 17 -38 c16 -36
17 -37 70 -37 l54 0 1 73 1 72 20 -73 c19 -67 22 -72 48 -72 26 0 30 5 48 62
l20 63 1 -62 1 -63 50 0 c43 0 50 3 50 20 0 15 -7 20 -25 20 -14 0 -25 5 -25
10 0 6 11 10 25 10 18 0 25 5 25 20 0 15 -7 20 -27 20 -14 0 -23 3 -19 7 4 4
15 8 24 8 10 0 18 9 20 23 3 21 0 22 -72 22 l-75 0 -7 -37 -7 -38 -12 35 -12
35 -76 3 -77 3 -1 -33 0 -33 -16 33 c-12 22 -24 32 -40 32 -22 0 -23 -3 -23
-80z"/>
<path d="M610 80 c0 -80 0 -80 26 -80 23 0 26 3 22 25 -3 14 -1 25 3 25 5 0 9
-11 9 -25 0 -24 2 -25 69 -25 61 0 72 3 85 22 l16 22 0 -22 c0 -17 6 -22 25
-22 24 0 25 3 25 55 0 42 3 55 15 55 12 0 15 -13 15 -55 0 -52 1 -55 25 -55
24 0 25 3 25 55 0 48 2 55 20 55 12 0 20 7 21 18 1 29 37 -61 38 -95 1 -28 5
-33 26 -33 21 0 25 5 25 30 0 17 11 53 25 80 l25 50 -29 0 c-22 0 -32 -6 -37
-22 l-7 -23 -8 23 c-8 21 -14 22 -119 22 l-110 0 0 -50 c0 -48 -1 -49 -18 -32
-10 9 -27 23 -38 30 -17 12 -17 12 7 7 26 -5 39 8 39 36 0 13 -74 11 -88 -3
-24 -24 -14 -67 21 -89 l32 -21 -32 6 c-27 4 -33 2 -33 -12 -1 -10 -6 -5 -14
13 -7 17 -9 32 -4 33 12 5 10 56 -4 70 -7 7 -31 12 -55 12 l-43 0 0 -80z"/>
</g>
</svg>
