<?xml version="1.0" standalone="no"?>
<!DOCTYPE svg PUBLIC "-//W3C//DTD SVG 20010904//EN"
 "http://www.w3.org/TR/2001/REC-SVG-20010904/DTD/svg10.dtd">
<svg version="1.0" xmlns="http://www.w3.org/2000/svg"
 width="150.000000pt" height="83.000000pt" viewBox="0 0 150.000000 83.000000"
 preserveAspectRatio="xMidYMid meet">
<metadata>
Created by potrace 1.16, written by Peter Selinger 2001-2019
</metadata>
<g transform="translate(0.000000,83.000000) scale(0.100000,-0.100000)"
fill="#000000" stroke="none">
<path d="M133 809 c-48 -24 -99 -77 -119 -125 -8 -19 -14 -64 -14 -102 0 -59
4 -75 33 -122 47 -79 117 -120 207 -120 54 0 74 5 117 30 176 101 171 348 -9
441 -53 27 -159 26 -215 -2z m125 -145 c7 -23 7 -45 2 -60 -11 -27 -3 -32 14
-10 6 8 23 18 38 21 l27 7 -16 -41 c-14 -35 -20 -41 -45 -41 -15 0 -28 -4 -28
-10 0 -10 13 -14 36 -11 6 1 12 -10 12 -24 0 -31 -11 -32 -31 -2 l-16 22 0
-22 c-1 -13 -5 -23 -10 -23 -5 0 -12 10 -14 23 l-4 22 -8 -22 c-4 -13 -14 -23
-23 -23 -12 0 -13 3 -5 11 6 6 9 18 6 25 -3 9 2 14 16 14 12 0 21 5 21 10 0 6
-13 10 -28 10 -25 0 -31 6 -45 41 l-16 41 27 -7 c15 -4 35 -14 45 -23 17 -15
17 -14 9 8 -9 25 4 100 18 100 3 0 12 -16 18 -36z"/>
<path d="M658 799 c-105 -55 -151 -120 -151 -214 0 -93 50 -159 162 -215 57
-28 72 -32 128 -28 83 5 137 41 176 118 26 50 28 62 25 142 -5 98 -26 143 -94
195 -33 24 -47 28 -113 30 -68 3 -82 0 -133 -28z m185 -130 c27 -37 27 -115 1
-160 -17 -28 -26 -34 -59 -37 -71 -5 -153 70 -140 128 7 29 51 78 80 91 40 17
97 6 118 -22z"/>
<path d="M1168 791 c-37 -20 -77 -46 -89 -57 -37 -34 -63 -95 -62 -151 0 -79
35 -130 130 -189 69 -43 85 -49 143 -52 76 -3 123 19 174 81 30 37 31 43 34
152 4 137 -11 179 -85 226 -40 25 -57 29 -112 29 -57 -1 -75 -6 -133 -39z
m188 -112 c28 -31 31 -134 5 -176 -17 -27 -27 -33 -55 -33 -66 0 -122 34 -153
93 -13 27 -13 31 10 66 45 67 152 95 193 50z"/>
<path d="M758 283 c-14 -4 -16 -13 -11 -54 4 -33 2 -49 -6 -49 -6 0 -11 -7
-11 -15 0 -16 9 -19 34 -9 12 4 16 20 16 56 0 68 24 60 28 -10 2 -37 7 -52 18
-52 8 0 14 9 14 22 l0 22 16 -22 c32 -45 84 -16 84 47 0 50 -25 73 -68 65 -18
-4 -32 -11 -32 -16 0 -5 -10 -2 -22 6 -23 16 -30 17 -60 9z"/>
<path d="M1072 278 c3 -7 15 -15 29 -18 21 -5 24 -12 27 -56 l3 -51 64 -2 c53
-1 65 1 65 14 0 8 -4 15 -9 15 -6 0 -11 21 -13 47 -3 42 -6 49 -31 58 -23 8
-31 6 -41 -7 -10 -14 -14 -14 -31 -2 -24 17 -68 19 -63 2z"/>
<path d="M1294 279 c-3 -6 -2 -14 3 -18 6 -3 12 -23 15 -43 4 -34 2 -38 -19
-38 -14 0 -23 -6 -23 -15 0 -8 4 -15 9 -15 4 0 6 -11 3 -25 -4 -22 -1 -25 28
-25 25 0 30 -3 26 -17 -16 -60 -17 -83 -2 -83 15 0 19 10 31 68 9 45 25 40 25
-8 0 -22 -4 -40 -10 -40 -5 0 -10 -5 -10 -11 0 -6 10 -9 23 -7 19 3 22 10 25
51 2 31 7 47 15 44 7 -2 10 -21 8 -50 -2 -42 0 -47 18 -47 18 0 21 6 21 48 0
66 -18 82 -94 81 -32 -1 -63 4 -69 10 -8 8 -6 11 6 11 14 0 17 10 17 64 0 49
-4 65 -16 70 -21 8 -22 8 -30 -5z"/>
<path d="M20 260 c0 -11 7 -20 15 -20 11 0 15 -12 15 -45 0 -38 3 -45 20 -45
17 0 20 7 20 45 0 33 4 45 15 45 11 0 15 -12 15 -45 l0 -45 80 0 c73 0 80 2
80 20 0 13 -7 20 -20 20 -17 0 -20 7 -20 45 0 38 -3 45 -20 45 -17 0 -20 -7
-20 -45 0 -40 -2 -45 -22 -44 -17 1 -19 2 -5 6 22 6 22 40 0 46 -17 4 -17 5 0
6 9 0 17 8 17 16 0 12 -16 15 -85 15 -78 0 -85 -2 -85 -20z"/>
<path d="M327 273 c-3 -5 -10 -27 -17 -51 -6 -24 -14 -50 -17 -58 -3 -9 2 -14
16 -14 12 0 24 7 27 15 4 8 10 15 15 15 5 0 9 -7 9 -15 0 -21 38 -19 43 3 4
16 5 16 6 -1 1 -13 8 -17 23 -15 15 2 25 15 34 43 l12 40 1 -42 c1 -36 4 -43
21 -43 17 0 20 7 21 53 1 56 2 55 19 -11 9 -35 15 -43 32 -40 15 2 25 18 39
63 10 33 19 61 19 63 0 1 -11 2 -24 2 -18 0 -26 -7 -29 -22 l-4 -23 -8 23 c-6
19 -14 22 -66 22 -57 0 -59 -1 -60 -27 l-1 -28 -10 28 c-10 28 -42 37 -51 15
-4 -10 -6 -10 -6 0 -1 13 -37 17 -44 5z"/>
<path d="M123 122 c-32 -3 -33 -5 -33 -48 0 -24 -4 -44 -10 -44 -5 0 -10 20
-10 45 0 38 -3 45 -20 45 -17 0 -20 -7 -20 -48 0 -26 5 -53 12 -60 15 -15 61
-15 76 0 9 9 12 9 12 0 0 -7 9 -12 20 -12 12 0 20 7 20 18 1 16 1 16 11 0 7
-12 22 -18 49 -18 l40 0 1 48 1 47 15 -48 c12 -39 18 -47 38 -47 18 0 25 8 33
38 l10 37 1 -37 1 -38 59 0 c54 0 60 2 64 23 l4 22 2 -22 c1 -21 6 -23 54 -23
29 0 59 6 66 12 11 11 13 11 7 0 -5 -8 1 -12 18 -12 24 0 26 3 26 46 0 27 4
43 10 39 6 -3 10 -24 10 -46 0 -32 3 -39 20 -39 17 0 20 7 20 44 0 36 3 44 18
42 23 -1 42 -36 35 -63 -4 -19 -1 -23 21 -23 22 0 26 5 26 28 1 15 7 38 15 52
28 49 12 67 -25 30 -16 -16 -20 -17 -20 -5 0 8 -6 15 -12 16 -21 2 -153 -3
-155 -5 -2 -2 -4 -15 -5 -29 -3 -31 -6 -32 -33 -11 -20 16 -20 16 3 9 17 -5
22 -2 22 13 0 27 -28 36 -55 18 -15 -10 -26 -11 -32 -5 -6 6 -44 10 -84 10
-126 0 -119 2 -120 -28 -1 -27 -1 -27 -8 -4 -8 30 -28 37 -86 33 -32 -3 -45
-8 -45 -19 0 -12 -4 -11 -17 4 -13 13 -28 18 -50 15z"/>
<path d="M1080 116 c0 -8 10 -16 23 -18 18 -2 23 -10 25 -40 3 -36 2 -38 -27
-38 -17 0 -31 -4 -31 -10 0 -6 28 -10 65 -10 l65 0 0 33 0 32 20 -32 c11 -18
27 -33 35 -33 18 0 19 12 4 27 -8 8 -8 13 0 17 18 11 14 86 -4 86 -11 0 -15
-11 -15 -36 l0 -37 -23 34 c-12 19 -31 36 -42 38 -18 3 -18 2 -3 -22 9 -13 13
-28 8 -33 -4 -5 -10 -20 -13 -34 -2 -14 -5 -5 -6 22 -1 36 -6 50 -20 58 -28
15 -61 12 -61 -4z"/>
</g>
</svg>
